 http://www.imdb.com/title/tt0454876/

TiTLE: Life.Of.Pi.2012.DVDSCREENER.XviD-DEYA

General
Complete name : C:UsersAdministratorDesktopLife.Of.Pi.2012.DVDSCREENER.XviD-DEYA
Format : AVI
Format/Info : Audio Video Interleave
Format profile : OpenDML
File size : 2.01 GiB
Duration : 2h 6mn
Overall bit rate : 2 271 Kbps
Writing library : VirtualDub build 31536/release

Video
ID : 0
Format : MPEG-4 Visual
Format profile : Advanced Simple@L5
Format settings, BVOP : 2
Format settings, QPel : No
Format settings, GMC : No warppoints
Format settings, Matrix : Default (H.263)
Muxing mode : Packed bitstream
Codec ID : XVID
Codec ID/Hint : XviD
Duration : 2h 6mn
Bit rate : 1 938 Kbps
Width : 688 pixels
Height : 366 pixels
Display aspect ratio : 1.880
Frame rate : 23.976 fps
Color space : YUV
Chroma subsampling : 4:2:0
Bit depth : 8 bits
Scan type : Progressive
Compression mode : Lossy
Bits/(Pixel*Frame) : 0.321
Stream size : 1.72 GiB (85%)
Writing library : XviD 64

Audio
ID : 1
Format : AC-3
Format/Info : Audio Coding 3
Mode extension : CM (complete main)
Codec ID : 2000
Duration : 2h 6mn
Bit rate mode : Constant
Bit rate : 320 Kbps
Channel(s) : 2 channels
Channel positions : Front: L R
Sampling rate : 48.0 KHz
Bit depth : 16 bits
Compression mode : Lossy
Stream size : 291 MiB (14%)
Alignment : Split accross interleaves
Interleave, duration : 42 ms (1.00 video frame)
Interleave, preload duration : 500 ms

SOURCE: DVDSCR M4V

SUBTiTLES: HC ENGLiSH WHEN NEEDED!

NOTES: did my cleaning a proper encode no rushing ting ;)

SCREENiES:
 
http://img29.imageshack.us/img29/2371/vlcsnap2013011821h46m17.png
 
http://img855.imageshack.us/img855/4882/vlcsnap2013011821h50m49.png
 
http://img27.imageshack.us/img27/9417/vlcsnap2013011821h51m50.png
 
http://img850.imageshack.us/img850/896/vlcsnap2013011822h40m31.png
 
http://img818.imageshack.us/img818/6897/vlcsnap2013011821h59m54.png
 
http://img14.imageshack.us/img14/267/vlcsnap2013011821h52m08.png
 
http://img43.imageshack.us/img43/3225/vlcsnap2013011822h07m59.png
 
http://img651.imageshack.us/img651/8008/vlcsnap2013011822h02m52.png